<svg width="74" height="29" viewBox="0 0 74 29" fill="none" xmlns="http://www.w3.org/2000/svg">
<path d="M1.992 23V6.2H5.88V19.832H14.304V23H1.992ZM24.3786 23.288C23.0506 23.288 21.8186 23.072 20.6826 22.64C19.5626 22.208 18.5866 21.6 17.7546 20.816C16.9386 20.032 16.2986 19.112 15.8346 18.056C15.3866 17 15.1626 15.848 15.1626 14.6C15.1626 13.352 15.3866 12.2 15.8346 11.144C16.2986 10.088 16.9466 9.168 17.7786 8.384C18.6106 7.6 19.5866 6.992 20.7066 6.56C21.8266 6.128 23.0426 5.912 24.3546 5.912C25.6826 5.912 26.8986 6.128 28.0026 6.56C29.1226 6.992 30.0906 7.6 30.9066 8.384C31.7386 9.168 32.3866 10.088 32.8506 11.144C33.3146 12.184 33.5466 13.336 33.5466 14.6C33.5466 15.848 33.3146 17.008 32.8506 18.08C32.3866 19.136 31.7386 20.056 30.9066 20.84C30.0906 21.608 29.1226 22.208 28.0026 22.64C26.8986 23.072 25.6906 23.288 24.3786 23.288ZM24.3546 19.976C25.1066 19.976 25.7946 19.848 26.4186 19.592C27.0586 19.336 27.6186 18.968 28.0986 18.488C28.5786 18.008 28.9466 17.44 29.2026 16.784C29.4746 16.128 29.6106 15.4 29.6106 14.6C29.6106 13.8 29.4746 13.072 29.2026 12.416C28.9466 11.76 28.5786 11.192 28.0986 10.712C27.6346 10.232 27.0826 9.864 26.4426 9.608C25.8026 9.352 25.1066 9.224 24.3546 9.224C23.6026 9.224 22.9066 9.352 22.2666 9.608C21.6426 9.864 21.0906 10.232 20.6106 10.712C20.1306 11.192 19.7546 11.76 19.4826 12.416C19.2266 13.072 19.0986 13.8 19.0986 14.6C19.0986 15.384 19.2266 16.112 19.4826 16.784C19.7546 17.44 20.1226 18.008 20.5866 18.488C21.0666 18.968 21.6266 19.336 22.2666 19.592C22.9066 19.848 23.6026 19.976 24.3546 19.976ZM44.5806 23.288C43.2526 23.288 42.0286 23.08 40.9086 22.664C39.8046 22.232 38.8366 21.624 38.0046 20.84C37.1886 20.056 36.5486 19.136 36.0846 18.08C35.6366 17.024 35.4126 15.864 35.4126 14.6C35.4126 13.336 35.6366 12.176 36.0846 11.12C36.5486 10.064 37.1966 9.144 38.0286 8.36C38.8606 7.576 39.8366 6.976 40.9566 6.56C42.0766 6.128 43.3086 5.912 44.6526 5.912C46.1406 5.912 47.4766 6.16 48.6606 6.656C49.8606 7.152 50.8686 7.872 51.6846 8.816L49.1886 11.12C48.5806 10.48 47.9166 10.008 47.1966 9.704C46.4766 9.384 45.6926 9.224 44.8446 9.224C44.0286 9.224 43.2846 9.352 42.6126 9.608C41.9406 9.864 41.3566 10.232 40.8606 10.712C40.3806 11.192 40.0046 11.76 39.7326 12.416C39.4766 13.072 39.3486 13.8 39.3486 14.6C39.3486 15.384 39.4766 16.104 39.7326 16.76C40.0046 17.416 40.3806 17.992 40.8606 18.488C41.3566 18.968 41.9326 19.336 42.5886 19.592C43.2606 19.848 43.9966 19.976 44.7966 19.976C45.5646 19.976 46.3086 19.856 47.0286 19.616C47.7646 19.36 48.4766 18.936 49.1646 18.344L51.3726 21.152C50.4606 21.84 49.3966 22.368 48.1806 22.736C46.9806 23.104 45.7806 23.288 44.5806 23.288ZM47.8206 20.648V14.336H51.3726V21.152L47.8206 20.648ZM63.1442 23.288C61.8162 23.288 60.5842 23.072 59.4482 22.64C58.3282 22.208 57.3522 21.6 56.5202 20.816C55.7042 20.032 55.0642 19.112 54.6002 18.056C54.1522 17 53.9282 15.848 53.9282 14.6C53.9282 13.352 54.1522 12.2 54.6002 11.144C55.0642 10.088 55.7122 9.168 56.5442 8.384C57.3762 7.6 58.3522 6.992 59.4722 6.56C60.5922 6.128 61.8082 5.912 63.1202 5.912C64.4482 5.912 65.6642 6.128 66.7682 6.56C67.8882 6.992 68.8562 7.6 69.6722 8.384C70.5042 9.168 71.1522 10.088 71.6162 11.144C72.0802 12.184 72.3122 13.336 72.3122 14.6C72.3122 15.848 72.0802 17.008 71.6162 18.08C71.1522 19.136 70.5042 20.056 69.6722 20.84C68.8562 21.608 67.8882 22.208 66.7682 22.64C65.6642 23.072 64.4562 23.288 63.1442 23.288ZM63.1202 19.976C63.8722 19.976 64.5602 19.848 65.1842 19.592C65.8242 19.336 66.3842 18.968 66.8642 18.488C67.3442 18.008 67.7122 17.44 67.9682 16.784C68.2402 16.128 68.3762 15.4 68.3762 14.6C68.3762 13.8 68.2402 13.072 67.9682 12.416C67.7122 11.76 67.3442 11.192 66.8642 10.712C66.4002 10.232 65.8482 9.864 65.2082 9.608C64.5682 9.352 63.8722 9.224 63.1202 9.224C62.3682 9.224 61.6722 9.352 61.0322 9.608C60.4082 9.864 59.8562 10.232 59.3762 10.712C58.8962 11.192 58.5202 11.76 58.2482 12.416C57.9922 13.072 57.8642 13.8 57.8642 14.6C57.8642 15.384 57.9922 16.112 58.2482 16.784C58.5202 17.44 58.8882 18.008 59.3522 18.488C59.8322 18.968 60.3922 19.336 61.0322 19.592C61.6722 19.848 62.3682 19.976 63.1202 19.976Z" fill="black"/>
</svg>
